#!OML:ASF X:\für Bonn\!DataBase\2005_08_11_Bastian_Final\c3d\Bastian.ASF
:FULLY-SPECIFIED
:DEGREES
1763
root -3.1423 17.1905 -9.25543 166.428 19.6191 -176.465
lowerback 14.2695 -3.74433 2.74758
upperback 8.61382 -3.43492 2.588
thorax 1.09074 -1.17439 1.61777
lowerneck -3.43753 0.389766 1.18509
upperneck -12.708 1.40656 1.61107
head -3.50606 0.890339 0.275587
rclavicle -3.62782e-014 2.14687e-014
rhumerus -218.315 -170.886 103.194
rradius 58.3427
rwrist -158.003
rhand -15.9959 5.68409
rfingers 7.12502
rthumb 10.2041 -24.0484
lclavicle -3.62782e-014 2.14687e-014
lhumerus -31.3373 -6.73723 93.2866
lradius 63.9786
lwrist 210.589
lhand -32.3123 12.0583
lfingers 7.12502
lthumb -5.55026 41.9656
rfemur 3.30702 -10.4344 21.7225
rtibia 37.9214
rfoot -23.1404 -4.94041
rtoes -15.3901
lfemur -14.8567 6.88691 -8.15377
ltibia 42.8377
lfoot -10.4723 5.81693
ltoes -25.1312
1764
root -3.11744 17.2039 -9.15737 166.426 18.7208 -176.444
lowerback 14.1745 -3.73807 2.58233
upperback 8.59161 -3.44885 2.60482
thorax 1.1286 -1.18737 1.72505
lowerneck -3.19691 0.154243 1.30154
upperneck -12.8836 1.0947 1.54703
head -3.61067 0.731665 0.239506
rclavicle 7.05686e-015 -3.81667e-014
rhumerus -218.44 -171.252 102.978
rradius 59.1624
rwrist -158.21
rhand -15.7312 5.53038
rfingers 7.12502
rthumb 10.4595 -24.1894
lclavicle 7.05686e-015 -3.81667e-014
lhumerus -31.4652 -7.40766 93.4751
lradius 63.9235
lwrist 210.423
lhand -32.45 11.9759
lfingers 7.12502
lthumb -5.68321 41.8797
rfemur 3.08526 -10.599 22.0172
rtibia 37.8761
rfoot -23.1395 -5.75127
rtoes -16.0684
lfemur -14.6965 7.38974 -8.53027
ltibia 44.858
lfoot -10.1385 5.10271
ltoes -25.5736
1765
root -3.09279 17.2148 -9.06359 166.454 17.8196 -176.346
lowerback 14.057 -3.7466 2.49639
upperback 8.55424 -3.47435 2.64654
thorax 1.15947 -1.20424 1.81483
lowerneck -2.97189 -0.0802183 1.38373
upperneck -13.0122 0.778556 1.47779
head -3.69698 0.57166 0.208687
rclavicle -8.64713e-015 1.98785e-014
rhumerus -218.618 -171.633 102.795
rradius 60.0007
rwrist -158.446
rhand -15.5811 5.32964
rfingers 7.12502
rthumb 10.6042 -24.3828
lclavicle -8.64713e-015 1.98785e-014
lhumerus -31.5878 -8.02273 93.6715
lradius 63.8898
lwrist 210.231
lhand -32.5907 11.8762
lfingers 7.12502
lthumb -5.81907 41.7763
rfemur 2.83998 -10.7179 22.4056
rtibia 37.878
rfoot -23.1776 -6.61678
rtoes -16.7639
lfemur -14.4293 7.80996 -8.8052
ltibia 46.7848
lfoot -9.97366 4.61053
ltoes -26.24
1766
root -3.06801 17.2232 -8.97306 166.51 16.8902 -176.24
lowerback 13.8764 -3.76786 2.4048
upperback 8.51215 -3.523 2.69605
thorax 1.22023 -1.23427 1.9157
lowerneck -2.74838 -0.306112 1.46632
upperneck -13.123 0.472222 1.40953
head -3.77771 0.416141 0.178659
rclavicle -4.6118e-014 -1.51076e-014
rhumerus -218.795 -172.002 102.625
rradius 60.9202
rwrist -158.689
rhand -15.5684 5.1536
rfingers 7.12502
rthumb 10.6165 -24.5582
lclavicle -4.6118e-014 -1.51076e-014
lhumerus -31.7274 -8.64792 93.8532
lradius 63.9409
lwrist 210.15
lhand -32.5952 11.6266
lfingers 7.12502
lthumb -5.82337 41.5265
rfemur 2.54612 -10.8326 22.7982
rtibia 37.9451
rfoot -23.2457 -7.50154
rtoes -17.137
lfemur -14.0898 8.19988 -9.03957
ltibia 48.6155
lfoot -9.89454 4.28989
ltoes -26.1116
1767
root -3.04301 17.229 -8.88568 166.599 15.9222 -176.185
lowerback 13.6352 -3.79368 2.26671
upperback 8.44753 -3.59223 2.73796
thorax 1.2926 -1.27944 2.03411
lowerneck -2.51034 -0.541448 1.48246
upperneck -13.2479 0.158909 1.39104
head -3.86723 0.2586 0.177462
rclavicle 5.79457e-014 -2.38542e-014
rhumerus -218.988 -172.397 102.444
rradius 61.9273
rwrist -158.906
rhand -15.6118 5.01838
rfingers 7.12502
rthumb 10.5746 -24.6956
lclavicle 5.79457e-014 -2.38542e-014
lhumerus -31.8419 -9.25084 94.0305
lradius 63.9661
lwrist 210.118
lhand -32.6116 11.5342
lfingers 7.12502
lthumb -5.83923 41.4337
rfemur 2.15582 -10.9602 23.1333
rtibia 38.103
rfoot -23.3676 -8.36043
rtoes -17.266
lfemur -13.6773 8.55057 -9.31603
ltibia 50.3312
lfoot -9.89835 4.1075
ltoes -25.737
1768
root -3.0181 17.2292 -8.80261 166.708 14.9605 -176.138
lowerback 13.3284 -3.80802 2.13189
upperback 8.36712 -3.65451 2.76707
thorax 1.38252 -1.32351 2.13289
lowerneck -2.23662 -0.785096 1.53111
upperneck -13.3414 -0.170022 1.37247
head -3.95296 0.0900183 0.172039
rclavicle 2.98177e-015 0
rhumerus -219.188 -172.755 102.254
rradius 62.9286
rwrist -159.084
rhand -15.6728 4.86483
rfingers 7.12502
rthumb 10.5158 -24.8521
lclavicle 2.98177e-015 0
lhumerus -31.988 -9.91574 94.2045
lradius 63.9981
lwrist 210.122
lhand -32.5271 11.5717
lfingers 7.12502
lthumb -5.75768 41.4735
rfemur 1.71239 -11.1676 23.4165
rtibia 38.3395
rfoot -23.4996 -9.14602
rtoes -17.1219
lfemur -13.1224 8.89284 -9.56764
ltibia 51.9159
lfoot -9.98976 4.01297
ltoes -25.092
1769
root -2.9939 17.2258 -8.72396 166.853 13.9898 -176.114
lowerback 12.9447 -3.82659 1.95416
upperback 8.27851 -3.73277 2.82427
thorax 1.51107 -1.37948 2.28225
lowerneck -2.04385 -1.0307 1.50702
upperneck -13.3615 -0.508135 1.36193
head -3.997 -0.0800954 0.182826
rclavicle 1.69961e-014 -1.43125e-014
rhumerus -219.428 -173.206 102.101
rradius 64.008
rwrist -159.233
rhand -15.6755 4.68585
rfingers 7.12502
rthumb 10.5132 -25.0312
lclavicle 1.69961e-014 -1.43125e-014
lhumerus -32.1164 -10.5165 94.4127
lradius 64.0548
lwrist 210.211
lhand -32.4026 11.6271
lfingers 7.12502
lthumb -5.63744 41.5321
rfemur 1.19672 -11.4488 23.6471
rtibia 38.6446
rfoot -23.684 -9.85312
rtoes -17.007
lfemur -12.4437 9.20454 -9.83118
ltibia 53.3309
lfoot -10.1912 4.03155
ltoes -24.7738
